<svg data-v-fde0c5aa="" xmlns="http://www.w3.org/2000/svg" viewBox="0 0 300 300" class="iconLeft"><!----><defs data-v-fde0c5aa=""><!----></defs><rect data-v-fde0c5aa="" fill="transparent" x="0" y="0" width="300px" height="300px" class="logo-background-square"></rect><defs data-v-fde0c5aa=""><!----></defs><g data-v-fde0c5aa="" id="2936c3f3-034e-42aa-80ce-ec5477cbc3c2" fill="#000000" transform="matrix(3.9586626358147274,0,0,3.9586626358147274,106.20596322892435,124.94166676113349)"><path d="M0.09 8.59L1.50 8.59L1.64 5.37L1.67 4.19L2.53 8.04L3.75 8.04L4.46 4.19L4.52 5.37L4.76 8.59L6.21 8.59L5.81 3.12L3.85 3.12L3.49 4.96L3.31 5.88L3.13 4.95L2.72 3.12L0.53 3.12L0.09 8.59ZM8.58 10.19L8.58 10.19L8.58 10.19Q9.50 10.19 9.94 9.63L9.94 9.63L9.94 9.63Q10.37 9.07 10.37 8.04L10.37 8.04L10.37 4.62L8.60 4.62L8.60 5.16L8.85 5.32L8.85 7.52L8.85 7.52Q8.79 7.57 8.73 7.61L8.73 7.61L8.73 7.61Q8.67 7.65 8.61 7.67L8.61 7.67L8.61 7.67Q8.55 7.69 8.49 7.69L8.49 7.69L8.49 7.69Q8.28 7.69 8.22 7.59L8.22 7.59L8.22 7.59Q8.15 7.49 8.15 7.28L8.15 7.28L8.15 4.62L6.45 4.62L6.45 5.16L6.62 5.32L6.62 6.98L6.62 6.98Q6.62 7.91 6.90 8.29L6.90 8.29L6.90 8.29Q7.19 8.68 7.88 8.68L7.88 8.68L7.88 8.68Q8.06 8.68 8.24 8.61L8.24 8.61L8.24 8.61Q8.41 8.54 8.54 8.43L8.54 8.43L8.54 8.43Q8.66 8.33 8.75 8.22L8.75 8.22L8.75 8.22Q8.85 8.12 8.89 8.04L8.89 8.04L8.94 7.97L8.94 8.37L8.94 8.37Q8.94 8.65 8.88 8.84L8.88 8.84L8.88 8.84Q8.82 9.03 8.72 9.13L8.72 9.13L8.72 9.13Q8.61 9.24 8.47 9.28L8.47 9.28L8.47 9.28Q8.34 9.32 8.15 9.32L8.15 9.32L8.15 9.32Q7.56 9.32 7.29 9.17L7.29 9.17L7.05 9.67L7.05 9.67Q7.25 9.91 7.67 10.05L7.67 10.05L7.67 10.05Q8.10 10.19 8.58 10.19ZM14.36 8.25L14.41 8.20L14.20 7.46L14.20 7.46Q14.03 7.58 13.77 7.64L13.77 7.64L13.77 7.64Q13.51 7.70 13.27 7.70L13.27 7.70L13.27 7.70Q13.16 7.70 13.07 7.67L13.07 7.67L13.07 7.67Q12.97 7.64 12.86 7.53L12.86 7.53L12.86 7.53Q12.74 7.42 12.66 7.23L12.66 7.23L12.66 7.23Q12.57 7.05 12.51 6.70L12.51 6.70L12.51 6.70Q12.46 6.36 12.46 5.89L12.46 5.89L12.46 5.89Q12.46 5.12 12.54 4.71L12.54 4.71L12.54 4.71Q12.63 4.29 12.80 4.15L12.80 4.15L12.80 4.15Q12.97 4.01 13.28 4.01L13.28 4.01L13.28 4.01Q13.34 4.01 13.42 4.03L13.42 4.03L13.66 4.59L14.37 4.59L14.44 3.51L14.44 3.51Q14.43 3.50 14.40 3.46L14.40 3.46L14.40 3.46Q14.37 3.43 14.25 3.35L14.25 3.35L14.25 3.35Q14.13 3.26 13.98 3.20L13.98 3.20L13.98 3.20Q13.84 3.13 13.58 3.08L13.58 3.08L13.58 3.08Q13.33 3.03 13.04 3.03L13.04 3.03L13.04 3.03Q12.41 3.03 11.97 3.22L11.97 3.22L11.97 3.22Q11.53 3.41 11.28 3.79L11.28 3.79L11.28 3.79Q11.03 4.17 10.92 4.67L10.92 4.67L10.92 4.67Q10.82 5.18 10.82 5.87L10.82 5.87L10.82 5.87Q10.82 6.51 10.92 7.01L10.92 7.01L10.92 7.01Q11.03 7.50 11.28 7.89L11.28 7.89L11.28 7.89Q11.52 8.28 11.96 8.48L11.96 8.48L11.96 8.48Q12.39 8.68 13.00 8.68L13.00 8.68L13.00 8.68Q13.29 8.68 13.54 8.64L13.54 8.64L13.54 8.64Q13.79 8.59 13.95 8.51L13.95 8.51L13.95 8.51Q14.10 8.44 14.21 8.37L14.21 8.37L14.21 8.37Q14.32 8.30 14.36 8.25L14.36 8.25ZM14.81 8.59L16.32 8.59L16.32 5.87L16.32 5.87Q16.33 5.86 16.37 5.82L16.37 5.82L16.37 5.82Q16.42 5.79 16.43 5.78L16.43 5.78L16.43 5.78Q16.44 5.77 16.48 5.74L16.48 5.74L16.48 5.74Q16.52 5.71 16.54 5.70L16.54 5.70L16.54 5.70Q16.56 5.69 16.60 5.67L16.60 5.67L16.60 5.67Q16.64 5.66 16.67 5.65L16.67 5.65L16.67 5.65Q16.71 5.65 16.74 5.65L16.74 5.65L16.74 5.65Q17.13 5.65 17.12 6.09L17.12 6.09L17.12 8.59L18.66 8.59L18.66 6.22L18.66 6.22Q18.66 6.19 18.66 6.13L18.66 6.13L18.66 6.13Q18.66 6.08 18.66 6.05L18.66 6.05L18.66 6.05Q18.66 5.23 18.40 4.88L18.40 4.88L18.40 4.88Q18.13 4.53 17.50 4.53L17.50 4.53L17.50 4.53Q17.31 4.53 17.12 4.60L17.12 4.60L17.12 4.60Q16.94 4.67 16.80 4.77L16.80 4.77L16.80 4.77Q16.66 4.87 16.55 4.97L16.55 4.97L16.55 4.97Q16.45 5.08 16.39 5.15L16.39 5.15L16.33 5.22L16.33 2.47L16.03 2.47L14.53 2.71L14.53 3.14L14.81 3.31L14.81 8.59ZM21.21 8.22L21.26 8.17L21.41 8.59L22.69 8.59L22.56 8.22L22.56 6.32L22.56 6.32Q22.56 5.81 22.48 5.48L22.48 5.48L22.48 5.48Q22.40 5.14 22.21 4.93L22.21 4.93L22.21 4.93Q22.02 4.71 21.72 4.62L21.72 4.62L21.72 4.62Q21.42 4.53 20.95 4.53L20.95 4.53L20.95 4.53Q20.42 4.53 19.91 4.68L19.91 4.68L19.91 4.68Q19.40 4.84 19.09 5.04L19.09 5.04L19.39 5.68L19.39 5.68Q19.56 5.59 19.88 5.52L19.88 5.52L19.88 5.52Q20.19 5.45 20.48 5.45L20.48 5.45L20.48 5.45Q20.81 5.45 20.96 5.57L20.96 5.57L20.96 5.57Q21.12 5.68 21.12 5.97L21.12 5.97L21.12 6.05L21.12 6.05Q20.96 6.05 20.79 6.07L20.79 6.07L20.79 6.07Q20.61 6.08 20.39 6.12L20.39 6.12L20.39 6.12Q20.17 6.16 19.98 6.23L19.98 6.23L19.98 6.23Q19.78 6.29 19.58 6.40L19.58 6.40L19.58 6.40Q19.39 6.51 19.25 6.65L19.25 6.65L19.25 6.65Q19.11 6.79 19.02 6.99L19.02 6.99L19.02 6.99Q18.93 7.20 18.93 7.44L18.93 7.44L18.93 7.44Q18.93 8.68 20.19 8.68L20.19 8.68L20.19 8.68Q20.37 8.68 20.55 8.63L20.55 8.63L20.55 8.63Q20.73 8.58 20.85 8.50L20.85 8.50L20.85 8.50Q20.98 8.43 21.07 8.35L21.07 8.35L21.07 8.35Q21.17 8.28 21.21 8.22L21.21 8.22ZM20.89 7.86L20.89 7.86L20.89 7.86Q20.50 7.86 20.50 7.28L20.50 7.28L20.50 7.28Q20.50 6.95 20.66 6.80L20.66 6.80L20.66 6.80Q20.83 6.64 21.12 6.64L21.12 6.64L21.12 7.76L21.12 7.76Q21.12 7.76 21.09 7.79L21.09 7.79L21.09 7.79Q21.06 7.81 21.01 7.84L21.01 7.84L21.01 7.84Q20.95 7.86 20.89 7.86ZM24.24 8.68L24.24 8.68L24.24 8.68Q24.56 8.68 24.82 8.61L24.82 8.61L24.82 8.61Q25.08 8.54 25.19 8.48L25.19 8.48L25.19 8.48Q25.30 8.41 25.37 8.34L25.37 8.34L25.37 7.70L25.37 7.70Q25.32 7.75 25.24 7.77L25.24 7.77L25.24 7.77Q25.16 7.79 25.06 7.79L25.06 7.79L25.06 7.79Q24.84 7.79 24.73 7.67L24.73 7.67L24.73 7.67Q24.63 7.55 24.63 7.18L24.63 7.18L24.63 5.44L25.41 5.44L25.41 4.62L24.64 4.62L24.64 3.53L23.82 3.53L23.34 4.62L22.79 4.79L22.79 5.44L23.11 5.44L23.11 7.03L23.11 7.03Q23.11 7.93 23.36 8.31L23.36 8.31L23.36 8.31Q23.61 8.68 24.24 8.68ZM28.23 7.71L28.44 8.59L30.16 8.59L28.60 3.12L26.67 3.12L26.78 3.50L25.36 8.59L26.73 8.59L26.91 7.71L28.23 7.71ZM27.10 6.76L27.51 4.72L28.00 6.76L27.10 6.76ZM32.78 8.59L32.78 8.59L32.78 8.59Q33.17 8.59 33.47 8.43L33.47 8.43L33.47 8.43Q33.77 8.26 33.96 7.98L33.96 7.98L33.96 7.98Q34.15 7.70 34.25 7.32L34.25 7.32L34.25 7.32Q34.35 6.95 34.35 6.51L34.35 6.51L34.35 6.51Q34.35 5.58 33.98 5.05L33.98 5.05L33.98 5.05Q33.62 4.53 32.85 4.53L32.85 4.53L32.85 4.53Q32.54 4.53 32.30 4.64L32.30 4.64L32.30 4.64Q32.06 4.76 31.89 4.93L31.89 4.93L31.89 4.62L31.11 4.62L30.11 4.90L30.11 5.39L30.39 5.57L30.39 10.00L31.89 10.00L31.89 8.39L31.89 8.39Q32.06 8.47 32.28 8.53L32.28 8.53L32.28 8.53Q32.51 8.59 32.78 8.59ZM32.09 7.94L32.09 7.94L32.09 7.94Q32.05 7.94 32.00 7.93L32.00 7.93L32.00 7.93Q31.95 7.93 31.89 7.91L31.89 7.91L31.89 5.45L31.89 5.45Q32.06 5.36 32.21 5.36L32.21 5.36L32.21 5.36Q32.43 5.36 32.58 5.56L32.58 5.56L32.58 5.56Q32.72 5.77 32.72 6.19L32.72 6.19L32.72 6.98L32.72 6.98Q32.72 7.94 32.09 7.94ZM37.28 8.59L37.28 8.59L37.28 8.59Q37.67 8.59 37.97 8.43L37.97 8.43L37.97 8.43Q38.27 8.26 38.46 7.98L38.46 7.98L38.46 7.98Q38.65 7.70 38.75 7.32L38.75 7.32L38.75 7.32Q38.85 6.95 38.85 6.51L38.85 6.51L38.85 6.51Q38.85 5.58 38.49 5.05L38.49 5.05L38.49 5.05Q38.13 4.53 37.36 4.53L37.36 4.53L37.36 4.53Q37.04 4.53 36.80 4.64L36.80 4.64L36.80 4.64Q36.56 4.76 36.40 4.93L36.40 4.93L36.40 4.62L35.62 4.62L34.61 4.90L34.61 5.39L34.89 5.57L34.89 10.00L36.40 10.00L36.40 8.39L36.40 8.39Q36.56 8.47 36.79 8.53L36.79 8.53L36.79 8.53Q37.01 8.59 37.28 8.59ZM36.60 7.94L36.60 7.94L36.60 7.94Q36.55 7.94 36.50 7.93L36.50 7.93L36.50 7.93Q36.45 7.93 36.40 7.91L36.40 7.91L36.40 5.45L36.40 5.45Q36.56 5.36 36.71 5.36L36.71 5.36L36.71 5.36Q36.94 5.36 37.08 5.56L37.08 5.56L37.08 5.56Q37.22 5.77 37.22 6.19L37.22 6.19L37.22 6.98L37.22 6.98Q37.22 7.94 36.60 7.94Z"></path></g><defs data-v-fde0c5aa=""><linearGradient data-v-fde0c5aa="" gradientTransform="rotate(25)" id="069af924-ba64-4c6c-8258-1a926b32d200" x1="0%" y1="0%" x2="100%" y2="0%"><stop data-v-fde0c5aa="" offset="0%" stop-color="#B4373D" stop-opacity="1"></stop><stop data-v-fde0c5aa="" offset="100%" stop-color="#B23ACB" stop-opacity="1"></stop></linearGradient></defs><g data-v-fde0c5aa="" id="d7710b50-a687-407f-9bde-e6154ca67629" stroke="none" fill="url(#069af924-ba64-4c6c-8258-1a926b32d200)" transform="matrix(0.48254017482543593,0,0,0.48254017482543593,39.75885460865891,126.99199836046667)"><path d="M104.343 59.979h-.009c4.685-6.157 7.313-13.35 7.16-20.989C111.063 17.007 87.805-.362 59.553.194 31.301.749 8.751 19.021 9.183 40.999c.008.403.023.804.048 1.204l1.382-.889c-.006-.122 7.458-3.969 7.458-4.091 0-15.986 23.184-31.354 41.478-31.354 16.493 0 44.731 9.461 44.731 33.198-.001 7.173-4.12 14.362-8.574 20.141-3.728 5.777.721 18.79.721 18.79l-14.634-7.79c-3.827 1.192-9.75 1.75-11.375 2.209-1.959 4.583-5.001 7.155-5.001 7.155 5.152-.36 9.128-1.237 13.731-2.69l25.925 11.143c-.001-.001-8.78-17.732-.73-28.046zM35.457 36.076C16.445 35.702.795 47.391.504 62.185c-.103 5.14 1.667 9.98 4.817 14.123h-.005c5.416 6.94-.491 18.873-.491 18.873l17.446-7.498c3.76 1.187 7.846 1.876 12.127 1.961 19.012.374 34.662-11.314 34.954-26.108.292-14.791-14.883-27.086-33.895-27.46z"></path></g><!----></svg>